<svg width="14" height="15" viewBox="0 0 14 15" fill="none" xmlns="http://www.w3.org/2000/svg">
<path d="M2.06917 7.68951L5.83579 10.99C5.94773 11.0881 5.95896 11.2583 5.86088 11.3703C5.76279 11.4822 5.59254 11.4934 5.48061 11.3953L1.20681 7.65045C1.12907 7.60317 1.07715 7.51767 1.07715 7.42004L1.07716 7.41753C1.07637 7.34196 1.10709 7.26611 1.16932 7.21174L5.48089 3.44448C5.59297 3.34656 5.7632 3.35803 5.86113 3.4701C5.95905 3.58217 5.94758 3.75241 5.83551 3.85033L2.05844 7.15056H12.1256C12.2744 7.15056 12.395 7.27121 12.395 7.42004C12.395 7.56886 12.2744 7.68951 12.1256 7.68951H2.06917Z" fill="#3E4447" stroke="#3E4447" stroke-width="0.269474"/>
</svg>
