<svg width="16" height="10" viewBox="0 0 21 13" fill="none" xmlns="http://www.w3.org/2000/svg">
<path d="M10.5099 12.2C10.1809 12.1995 9.86501 12.0703 9.62994 11.84L0.669941 2.99998C0.348402 2.68737 0.218062 2.22697 0.328018 1.79221C0.437975 1.35744 0.771523 1.01436 1.20302 0.892205C1.63451 0.770048 2.0984 0.88737 2.41994 1.19998L10.5099 9.19998L18.5999 1.19998C19.097 0.713967 19.8939 0.722921 20.3799 1.21998C20.866 1.71703 20.857 2.51397 20.3599 2.99998L11.3599 11.86C11.1303 12.0776 10.8263 12.1992 10.5099 12.2Z" fill="#4B5563"/>
<mask id="mask0" mask-type="alpha" maskUnits="userSpaceOnUse" x="0" y="0" width="21" height="13">
<path d="M10.5099 12.2C10.1809 12.1995 9.86501 12.0703 9.62994 11.84L0.669941 2.99998C0.348402 2.68737 0.218062 2.22697 0.328018 1.79221C0.437975 1.35744 0.771523 1.01436 1.20302 0.892205C1.63451 0.770048 2.0984 0.88737 2.41994 1.19998L10.5099 9.19998L18.5999 1.19998C19.097 0.713967 19.8939 0.722921 20.3799 1.21998C20.866 1.71703 20.857 2.51397 20.3599 2.99998L11.3599 11.86C11.1303 12.0776 10.8263 12.1992 10.5099 12.2Z" fill="white"/>
</mask>
<g mask="url(#mask0)">
<rect x="-2" y="-6" width="50" height="50" fill="#4B5563"/>
</g>
</svg>
