<svg width="16" height="10" viewBox="0 0 21 13" fill="none" xmlns="http://www.w3.org/2000/svg">
<path d="M1.53996 12.2C1.20831 12.2025 0.890189 12.0687 0.659959 11.83C0.424855 11.5955 0.292725 11.2771 0.292725 10.945C0.292725 10.613 0.424855 10.2945 0.659959 10.06L9.65996 1.20002C10.1494 0.722389 10.9305 0.722389 11.42 1.20002L20.42 10.06C20.7379 10.3744 20.864 10.8346 20.7507 11.2671C20.6374 11.6997 20.302 12.039 19.8707 12.1571C19.4395 12.2753 18.9779 12.1544 18.66 11.84L10.57 3.84002L2.47996 11.84C2.23161 12.0875 1.8901 12.2183 1.53996 12.2Z" fill="#4B5563"/>
<mask id="mask0" mask-type="alpha" maskUnits="userSpaceOnUse" x="0" y="0" width="21" height="13">
<path d="M1.53996 12.2C1.20831 12.2025 0.890189 12.0687 0.659959 11.83C0.424855 11.5955 0.292725 11.2771 0.292725 10.945C0.292725 10.613 0.424855 10.2945 0.659959 10.06L9.65996 1.20002C10.1494 0.722389 10.9305 0.722389 11.42 1.20002L20.42 10.06C20.7379 10.3744 20.864 10.8346 20.7507 11.2671C20.6374 11.6997 20.302 12.039 19.8707 12.1571C19.4395 12.2753 18.9779 12.1544 18.66 11.84L10.57 3.84002L2.47996 11.84C2.23161 12.0875 1.8901 12.2183 1.53996 12.2Z" fill="white"/>
</mask>
<g mask="url(#mask0)">
<rect x="-2" y="-6" width="50" height="50" fill="#0b6583"/>
</g>
</svg>
